<?xml version="1.0" encoding="UTF-8"?>
<svg version="1.1" xmlns="http://www.w3.org/2000/svg" width="150" height="150">
<path d="M0 0 C49.5 0 99 0 150 0 C150 49.5 150 99 150 150 C100.5 150 51 150 0 150 C0 100.5 0 51 0 0 Z " fill="#E0D0D0" transform="translate(0,0)"/>
<path d="M0 0 C1.17820312 0.19722656 2.35640625 0.39445312 3.5703125 0.59765625 C4.53759277 0.76031982 4.53759277 0.76031982 5.52441406 0.92626953 C7.61424928 1.25821988 9.70603616 1.5383057 11.8046875 1.80859375 C27.49536004 3.91489599 42.48571429 8.44387066 57.4375 13.5625 C71.42135737 18.30520563 84.70832912 19.00803072 98.5625 13.25 C102.02527805 11.42514267 105.32227421 9.44428383 108.5625 7.25 C105.94506198 13.14571435 100.84506657 17.65785473 95.5625 21.25 C94.9025 20.92 94.2425 20.59 93.5625 20.25 C94.5525 18.765 94.5525 18.765 95.5625 17.25 C94.40878906 17.57226562 93.25507812 17.89453125 92.06640625 18.2265625 C80.54657299 21.08690343 68.95671083 19.51350798 57.79736328 15.9609375 C55.18256257 15.12913723 52.55884159 14.32945838 49.93359375 13.53125 C46.90712877 12.61073911 43.88100238 11.68934266 40.85693359 10.76098633 C26.84567134 6.46984762 14.3127198 4.06587798 -0.4375 4.25 C1.27759766 4.97316406 1.27759766 4.97316406 3.02734375 5.7109375 C4.51837725 6.3486122 6.00925466 6.98665195 7.5 7.625 C8.25474609 7.94210938 9.00949219 8.25921875 9.78710938 8.5859375 C15.44921875 11.0234375 15.44921875 11.0234375 16.5625 13.25 C11.31328752 11.5650676 6.2289006 9.54214731 1.12890625 7.4609375 C-2.6877264 5.9155525 -6.5168935 4.50846628 -10.4375 3.25 C-6.78341273 -0.57018215 -5.22590589 -0.87875105 0 0 Z " fill="#7C7373" transform="translate(31.4375,74.75)"/>
<path d="M0 0 C2.82868857 1.29603412 4.9701021 2.69189598 7.234375 4.8203125 C7.80800781 5.35527344 8.38164063 5.89023437 8.97265625 6.44140625 C9.55917969 6.99699219 10.14570312 7.55257812 10.75 8.125 C11.35199219 8.68832031 11.95398438 9.25164063 12.57421875 9.83203125 C14.05334151 11.21724146 15.52719641 12.6080729 17 14 C16.67 14.66 16.34 15.32 16 16 C15.62875 15.54625 15.2575 15.0925 14.875 14.625 C12.39524512 12.47587911 10.17217086 11.77685817 7 11 C4.90178785 11.39938767 4.90178785 11.39938767 3 12 C1.66666667 11.66666667 0.33333333 11.33333333 -1 11 C-6.32939829 10.30907437 -6.32939829 10.30907437 -11.07421875 12.33984375 C-12.80116798 13.82859308 -14.42801855 15.34941948 -16 17 C-16.66 16.67 -17.32 16.34 -18 16 C-16.1265988 14.26907429 -14.25133718 12.54023837 -12.375 10.8125 C-11.85292969 10.32974609 -11.33085938 9.84699219 -10.79296875 9.34960938 C-7.28138707 6.11982129 -3.68700349 3.02821458 0 0 Z " fill="#C4B6B6" transform="translate(59,51)"/>
<path d="M0 0 C1.2380014 3.57644848 0.74926071 6.33694766 0 10 C0.66 10 1.32 10 2 10 C2.33 8.35 2.66 6.7 3 5 C3.99 5 4.98 5 6 5 C5.67 5.66 5.34 6.32 5 7 C5.66 6.67 6.32 6.34 7 6 C11.33339303 5.48067392 14.88688528 5.4310747 18.8125 7.4375 C23.38515017 12.79403306 25.73730981 18.71459959 25.390625 25.796875 C24.36700415 31.57009657 21.42986597 36.20297203 17 40 C16.34 39.67 15.68 39.34 15 39 C15.42152344 38.51789063 15.84304687 38.03578125 16.27734375 37.5390625 C16.82519531 36.90742187 17.37304688 36.27578125 17.9375 35.625 C18.48277344 34.99851563 19.02804688 34.37203125 19.58984375 33.7265625 C23.43770589 29.01532963 22.50198644 22.77628233 22 17 C20.84332077 13.40410603 19.16837416 10.89575353 16.125 8.5625 C11.91492896 7.44806943 9.0172998 7.46923489 5.125 9.5 C4.42375 9.995 3.7225 10.49 3 11 C3.33 12.32 3.66 13.64 4 15 C3.01 15 2.02 15 1 15 C1 14.34 1 13.68 1 13 C0.34 13 -0.32 13 -1 13 C-1.02696365 11.20841511 -1.04637917 9.41671527 -1.0625 7.625 C-1.07410156 6.62726562 -1.08570312 5.62953125 -1.09765625 4.6015625 C-1 2 -1 2 0 0 Z " fill="#7D7474" transform="translate(88,34)"/>
<path d="M0 0 C-0.66 2.31 -1.32 4.62 -2 7 C-0.35 7.66 1.3 8.32 3 9 C0.3956568 10.3021716 -1.29270642 9.89113376 -4.1875 9.6875 C-8.60382107 9.61195767 -10.84255337 10.0731717 -14.1875 13 C-15.15109582 13.97487914 -16.09910937 14.96689675 -17 16 C-17.66 15.67 -18.32 15.34 -19 15 C-17.10600285 13.24797712 -15.20988262 11.49835022 -13.3125 9.75 C-12.51682617 9.01330078 -12.51682617 9.01330078 -11.70507812 8.26171875 C-2.72734375 0 -2.72734375 0 0 0 Z " fill="#1A1818" transform="translate(60,52)"/>
<path d="M0 0 C2.64 0 5.28 0 8 0 C8 1.65 8 3.3 8 5 C8.99 5 9.98 5 11 5 C11 5.66 11 6.32 11 7 C9.35 6.67 7.7 6.34 6 6 C5.67 5.01 5.34 4.02 5 3 C4.67 4.32 4.34 5.64 4 7 C2.68 7 1.36 7 0 7 C0 4.69 0 2.38 0 0 Z " fill="#B5A7A7" transform="translate(60,115)"/>
<path d="M0 0 C0.99 0.33 1.98 0.66 3 1 C2.01 1.495 2.01 1.495 1 2 C1.33 2.99 1.66 3.98 2 5 C2.83789062 5.09152344 3.67578125 5.18304688 4.5390625 5.27734375 C8.5174342 6.10804213 11.8126503 7.68464343 15.375 9.5625 C16.01566406 9.89185547 16.65632813 10.22121094 17.31640625 10.56054688 C18.88138632 11.36639482 20.44124021 12.18218493 22 13 C21.01 13.495 21.01 13.495 20 14 C17.42292083 12.98704403 14.94466902 11.91513968 12.4375 10.75 C6.69887036 8.1525759 1.03713007 5.8327002 -5 4 C-3.36587557 2.29159719 -2.13093906 1.06546953 0 0 Z " fill="#6E6666" transform="translate(26,74)"/>
<path d="M0 0 C1.67542976 0.28604898 3.34385343 0.61781233 5 1 C5 2.65 5 4.3 5 6 C2.625 6.625 2.625 6.625 0 7 C-0.66 6.34 -1.32 5.68 -2 5 C-1.46428571 1.46428571 -1.46428571 1.46428571 0 0 Z " fill="#AA9E9E" transform="translate(108,115)"/>
<path d="M0 0 C2.35694954 0.09031574 4.71153582 0.24688128 7.0625 0.4375 C8.35285156 0.53933594 9.64320312 0.64117187 10.97265625 0.74609375 C12.47119141 0.87177734 12.47119141 0.87177734 14 1 C14 1.33 14 1.66 14 2 C12.53240234 2.18175781 12.53240234 2.18175781 11.03515625 2.3671875 C3.9373169 3.26720693 -3.04288317 4.29123446 -10 6 C-7.35603236 3.35603236 -4.42496181 2.43225676 -1 1 C-0.67 0.67 -0.34 0.34 0 0 Z " fill="#6B6363" transform="translate(39,68)"/>
<path d="M0 0 C0.66 0.33 1.32 0.66 2 1 C2 3 2 3 1 6 C0.113125 6.061875 -0.77375 6.12375 -1.6875 6.1875 C-5.74081992 7.18171055 -7.29831749 8.90101124 -10 12 C-10.66 11.67 -11.32 11.34 -12 11 C-8.04 7.37 -4.08 3.74 0 0 Z " fill="#514B4B" transform="translate(53,56)"/>
<path d="M0 0 C4.29238623 1.65091778 6.8793915 4.73754566 10 8 C9.67 8.66 9.34 9.32 9 10 C8.62875 9.54625 8.2575 9.0925 7.875 8.625 C5.39524512 6.47587911 3.17217086 5.77685817 0 5 C-2.2875976 5.27640014 -2.2875976 5.27640014 -4 6 C-2.36587557 4.29159719 -1.13093906 3.06546953 1 2 C0.67 1.34 0.34 0.68 0 0 Z " fill="#7F7575" transform="translate(66,57)"/>
<path d="M0 0 C0.66 0 1.32 0 2 0 C2.33 0.66 2.66 1.32 3 2 C3.33 1.34 3.66 0.68 4 0 C4.66 0 5.32 0 6 0 C6 2.31 6 4.62 6 7 C5.34 7 4.68 7 4 7 C3.67 6.34 3.34 5.68 3 5 C2.67 5.66 2.34 6.32 2 7 C1.34 7 0.68 7 0 7 C0 4.69 0 2.38 0 0 Z " fill="#8E8484" transform="translate(115,115)"/>
<path d="M0 0 C2.475 0.495 2.475 0.495 5 1 C5 2.98 5 4.96 5 7 C3.35 6.67 1.7 6.34 0 6 C0 4.02 0 2.04 0 0 Z " fill="#928787" transform="translate(36,115)"/>
<path d="M0 0 C1.2380014 3.57644848 0.74926071 6.33694766 0 10 C0.66 10 1.32 10 2 10 C2 10.66 2 11.32 2 12 C2.66 12 3.32 12 4 12 C4 12.99 4 13.98 4 15 C3.01 15 2.02 15 1 15 C1 14.34 1 13.68 1 13 C0.34 13 -0.32 13 -1 13 C-1.02696365 11.20841511 -1.04637917 9.41671527 -1.0625 7.625 C-1.07410156 6.62726562 -1.08570312 5.62953125 -1.09765625 4.6015625 C-1 2 -1 2 0 0 Z " fill="#938888" transform="translate(88,34)"/>
<path d="M0 0 C1.32 0 2.64 0 4 0 C4.33 2.31 4.66 4.62 5 7 C3.35 7 1.7 7 0 7 C0 4.69 0 2.38 0 0 Z " fill="#9C9090" transform="translate(85,115)"/>
<path d="M0 0 C0.66 0 1.32 0 2 0 C2 0.99 2 1.98 2 3 C2.66 3 3.32 3 4 3 C4 2.01 4 1.02 4 0 C4.66 0 5.32 0 6 0 C5.67 1.98 5.34 3.96 5 6 C3.68 6 2.36 6 1 6 C0.67 4.02 0.34 2.04 0 0 Z " fill="#968B8B" transform="translate(51,115)"/>
<path d="M0 0 C0.66 0.33 1.32 0.66 2 1 C1.67 1.66 1.34 2.32 1 3 C1.66 2.67 2.32 2.34 3 2 C5.6723621 1.86584528 8.32250488 1.95681459 11 2 C11 2.33 11 2.66 11 3 C10.39671875 3.12117188 9.7934375 3.24234375 9.171875 3.3671875 C8.37265625 3.53476562 7.5734375 3.70234375 6.75 3.875 C5.56664063 4.11863281 5.56664063 4.11863281 4.359375 4.3671875 C2.03168856 4.99150075 0.10968048 5.84838542 -2 7 C-1.125 1.125 -1.125 1.125 0 0 Z " fill="#756D6D" transform="translate(92,38)"/>
<path d="M0 0 C2.125 0.375 2.125 0.375 4 1 C3.34 1 2.68 1 2 1 C2 1.66 2 2.32 2 3 C2.99 3.66 3.98 4.32 5 5 C2.03 5.66 -0.94 6.32 -4 7 C-2.92598892 4.08482708 -2.22189824 2.22189824 0 0 Z " fill="#B2A5A5" transform="translate(96,35)"/>
<path d="M0 0 C0.99 0.33 1.98 0.66 3 1 C3.33 2.98 3.66 4.96 4 7 C2.35 7 0.7 7 -1 7 C-0.67 4.69 -0.34 2.38 0 0 Z " fill="#9E9292" transform="translate(45,115)"/>
<path d="M0 0 C1.32 0 2.64 0 4 0 C3.814375 0.598125 3.62875 1.19625 3.4375 1.8125 C2.77906313 4.16408762 2.77906313 4.16408762 4 7 C2.68 7 1.36 7 0 7 C0 4.69 0 2.38 0 0 Z " fill="#958A8A" transform="translate(60,115)"/>
<path d="M0 0 C1.65 0 3.3 0 5 0 C5 0.66 5 1.32 5 2 C4.34 2 3.68 2 3 2 C3 3.65 3 5.3 3 7 C2.34 6.67 1.68 6.34 1 6 C0.375 2.9375 0.375 2.9375 0 0 Z " fill="#8D8282" transform="translate(29,115)"/>
<path d="M0 0 C0.99 0.33 1.98 0.66 3 1 C3.66 0.67 4.32 0.34 5 0 C4.42415568 2.38564077 3.77772405 4.66682784 3 7 C2.34 7 1.68 7 1 7 C0.67 4.69 0.34 2.38 0 0 Z " fill="#958A8A" transform="translate(92,115)"/>
</svg>
